<mxfile host="app.diagrams.net" modified="2023-10-25T12:47:25.960Z" agent="Mozilla/5.0 (Windows NT 10.0; Win64; x64) AppleWebKit/537.36 (KHTML, like Gecko) Chrome/118.0.0.0 Safari/537.36" version="22.0.8" etag="u7bGvnh9di2Fz9JhvnlW" type="github">
  <diagram name="Page-1" id="0Jw2kKaAXq_y6zw-s7F4">
    <mxGraphModel>
      <root>
        <mxCell id="0" />
        <mxCell id="1" parent="0" />
      </root>
    </mxGraphModel>
  </diagram>
</mxfile>
